# This file uses centimeters as units for non-parametric coordinates.

mtllib Ground.mtl
g default
v -3.589936 0.000000 3.589936
v -1.794968 0.203218 3.589936
v -0.011306 0.745537 3.589936
v 1.656523 1.017899 3.589936
v 5.668488 1.038513 3.589936
v -3.589936 0.000000 -3.589936
v -1.794968 0.203218 -3.589936
v -0.011306 0.745537 -3.589936
v 1.656523 1.017899 -3.589936
v 5.668488 1.038513 -3.589936
vt 0.000000 0.000000
vt 0.250000 0.000000
vt 0.500000 0.000000
vt 0.750000 0.000000
vt 1.000000 0.000000
vt 0.000000 1.000000
vt 0.250000 1.000000
vt 0.500000 1.000000
vt 0.750000 1.000000
vt 1.000000 1.000000
vn -0.112496 0.993652 0.000000
vn -0.203951 0.978981 0.000000
vn -0.203951 0.978981 0.000000
vn -0.112496 0.993652 0.000000
vn -0.229725 0.973256 0.000000
vn -0.229725 0.973256 0.000000
vn -0.051514 0.998672 0.000000
vn -0.051514 0.998672 0.000000
vn -0.005138 0.999987 0.000000
vn -0.005138 0.999987 0.000000
s 1
g pPlane1
usemtl initialShadingGroup
f 1/1/1 2/2/2 7/7/3 6/6/4
f 2/2/2 3/3/5 8/8/6 7/7/3
f 3/3/5 4/4/7 9/9/8 8/8/6
f 4/4/7 5/5/9 10/10/10 9/9/8
